<svg aria-hidden="true" style="position: absolute; width: 0; height: 0; overflow: hidden;" version="1.1" xmlns="http://www.w3.org/2000/svg" xmlns:xlink="http://www.w3.org/1999/xlink">
<defs>
<symbol id="icon-taurus" viewBox="0 0 31 32">
<path d="M0 0.938v0.938h0.385c0.448 0 0.718 0.040 1.083 0.163 0.892 0.297 1.707 0.978 2.485 2.068 0.277 0.388 0.54 0.83 1.155 1.935 0.645 1.16 0.785 1.407 1.037 1.822 0.6 0.985 1.205 1.797 1.725 2.308 0.62 0.61 1.443 1.145 2.367 1.543 0.152 0.065 0.285 0.127 0.295 0.137 0.012 0.010-0.055 0.063-0.15 0.113-1.065 0.592-2.178 1.467-3.005 2.363-1.572 1.705-2.518 3.75-2.753 5.962-0.070 0.655-0.058 1.712 0.027 2.413 0.272 2.223 1.265 4.218 2.96 5.947 1.905 1.948 4.038 3.020 6.538 3.29 0.787 0.085 1.765 0.075 2.563-0.027 2.315-0.297 4.348-1.317 6.13-3.078 1.607-1.587 2.6-3.383 3.005-5.427 0.087-0.442 0.15-0.975 0.177-1.538 0.113-2.288-0.492-4.428-1.782-6.3-0.957-1.387-2.205-2.533-3.78-3.473-0.177-0.107-0.343-0.205-0.363-0.217-0.030-0.018-0.010-0.035 0.087-0.078 0.707-0.31 1.065-0.5 1.538-0.81 0.905-0.598 1.517-1.242 2.317-2.44 0.407-0.615 0.642-1.013 1.578-2.69 0.57-1.022 0.72-1.277 1-1.68 0.815-1.175 1.715-1.907 2.685-2.19 0.297-0.085 0.54-0.115 0.96-0.115h0.36v-1.875h-0.73c-0.402 0-0.837 0.013-0.965 0.025-1.762 0.185-3.392 1.395-4.872 3.615-0.302 0.453-0.45 0.7-1.378 2.297-0.933 1.612-1.105 1.888-1.545 2.475-1.227 1.645-2.473 2.425-4.313 2.7-0.628 0.092-1.385 0.127-2.053 0.090-2.42-0.133-3.818-0.873-5.28-2.795-0.422-0.558-0.735-1.060-1.57-2.533-0.372-0.652-0.75-1.313-0.84-1.463-1.627-2.717-3.42-4.18-5.383-4.388-0.13-0.013-0.565-0.025-0.965-0.025h-0.733v0.938zM16.425 13.363c1.75 0.223 3.242 0.92 4.485 2.088 1.543 1.452 2.345 3.013 2.595 5.050 0.047 0.392 0.040 1.552-0.015 1.962-0.225 1.72-0.895 3.12-2.105 4.405-1.71 1.817-3.835 2.697-6.335 2.625-2.027-0.060-3.697-0.71-5.192-2.025-1.565-1.375-2.463-3.025-2.723-5.005-0.055-0.41-0.063-1.57-0.015-1.962 0.183-1.495 0.673-2.74 1.515-3.86 0.273-0.36 0.402-0.51 0.785-0.898 1.42-1.44 3.113-2.235 5.143-2.418 0.37-0.033 1.495-0.010 1.862 0.037z"></path>
</symbol>
</defs>
</svg>
